<?xml version="1.0" encoding="UTF-8" standalone="no"?>
<!DOCTYPE svg PUBLIC "-//W3C//DTD SVG 1.1//EN"
 "http://www.w3.org/Graphics/SVG/1.1/DTD/svg11.dtd">
<!-- Generated by graphviz version 12.2.1 (0)
 -->
<!-- Pages: 1 -->
<svg width="538pt" height="225pt"
 viewBox="0.00 0.00 538.25 224.75" xmlns="http://www.w3.org/2000/svg" xmlns:xlink="http://www.w3.org/1999/xlink">
<g id="graph0" class="graph" transform="scale(1 1) rotate(0) translate(4 220.75)">
<polygon fill="white" stroke="none" points="-4,4 -4,-220.75 534.25,-220.75 534.25,4 -4,4"/>
<!-- 0 -->
<!-- I -->
<g id="node2" class="node">
<title>I</title>
<ellipse fill="none" stroke="black" cx="118" cy="-74.5" rx="27" ry="18"/>
<text text-anchor="middle" x="118" y="-69.82" font-family="monospace" font-size="14.00">I</text>
</g>
<!-- 0&#45;&gt;I -->
<g id="edge1" class="edge">
<title>0&#45;&gt;I</title>
<path fill="none" stroke="black" d="M54.22,-74.5C62.12,-74.5 70.94,-74.5 79.43,-74.5"/>
<polygon fill="black" stroke="black" points="79.14,-78 89.14,-74.5 79.14,-71 79.14,-78"/>
</g>
<!-- R -->
<g id="node3" class="node">
<title>R</title>
<ellipse fill="none" stroke="blue" cx="265.75" cy="-163.5" rx="27" ry="18"/>
<text text-anchor="middle" x="265.75" y="-158.82" font-family="monospace" font-size="14.00" fill="blue">R</text>
</g>
<!-- I&#45;&gt;R -->
<g id="edge3" class="edge">
<title>I&#45;&gt;R</title>
<path fill="none" stroke="blue" d="M138.66,-86.5C163.68,-101.78 207.11,-128.3 235.89,-145.87"/>
<polygon fill="blue" stroke="blue" points="233.75,-148.67 244.11,-150.9 237.4,-142.7 233.75,-148.67"/>
<text text-anchor="middle" x="191.88" y="-138.66" font-family="monospace" font-size="14.00" fill="blue">[^&quot;\n;]</text>
</g>
<!-- A1 -->
<g id="node4" class="node">
<title>A1</title>
<ellipse fill="none" stroke="red" cx="265.75" cy="-74.5" rx="27" ry="18"/>
<text text-anchor="start" x="258.25" y="-70.82" font-family="monospace" font-size="14.00" fill="red">A</text>
<text text-anchor="start" x="266.5" y="-70.82" font-family="monospace" baseline-shift="sub" font-size="14.00" fill="red">1</text>
</g>
<!-- I&#45;&gt;A1 -->
<g id="edge6" class="edge">
<title>I&#45;&gt;A1</title>
<path fill="none" stroke="red" d="M145.39,-74.5C168.3,-74.5 201.72,-74.5 227.38,-74.5"/>
<polygon fill="red" stroke="red" points="227.04,-78 237.04,-74.5 227.04,-71 227.04,-78"/>
<text text-anchor="middle" x="191.88" y="-78.45" font-family="monospace" font-size="14.00" fill="red">&quot;</text>
</g>
<!-- F -->
<g id="node6" class="node">
<title>F</title>
<ellipse fill="none" stroke="black" cx="499.25" cy="-83.5" rx="27" ry="18"/>
<ellipse fill="none" stroke="black" cx="499.25" cy="-83.5" rx="31" ry="22"/>
<text text-anchor="middle" x="499.25" y="-78.82" font-family="monospace" font-size="14.00">F</text>
</g>
<!-- I&#45;&gt;F -->
<g id="edge2" class="edge">
<title>I&#45;&gt;F</title>
<path fill="none" stroke="forestgreen" d="M141.33,-64.8C178.1,-49.97 253.85,-24.29 319,-33.25 369.2,-40.15 425.14,-57.45 460.97,-69.81"/>
<polygon fill="forestgreen" stroke="forestgreen" points="459.39,-72.97 469.98,-72.98 461.7,-66.36 459.39,-72.97"/>
<text text-anchor="middle" x="314.88" y="-37.2" font-family="monospace" font-size="14.00" fill="forestgreen"> </text>
<text text-anchor="middle" x="298.39" y="-3.95" font-family="monospace" font-size="14.00" fill="forestgreen">[\n;]</text>
</g>
<!-- R&#45;&gt;R -->
<g id="edge4" class="edge">
<title>R&#45;&gt;R</title>
<path fill="none" stroke="blue" d="M256.98,-180.91C255.34,-190.59 258.27,-199.5 265.75,-199.5 270.08,-199.5 272.88,-196.52 274.16,-192.14"/>
<polygon fill="blue" stroke="blue" points="277.65,-192.53 274.47,-182.42 270.65,-192.3 277.65,-192.53"/>
<text text-anchor="middle" x="265.75" y="-203.45" font-family="monospace" font-size="14.00" fill="blue">[^\n;]</text>
</g>
<!-- R&#45;&gt;F -->
<g id="edge5" class="edge">
<title>R&#45;&gt;F</title>
<path fill="none" stroke="blue" d="M291.07,-156.54C326.46,-146.21 394.07,-125.76 450.25,-104.5 454.14,-103.03 458.17,-101.41 462.16,-99.75"/>
<polygon fill="blue" stroke="blue" points="463.33,-103.06 471.15,-95.91 460.58,-96.62 463.33,-103.06"/>
<text text-anchor="middle" x="364" y="-146.31" font-family="monospace" font-size="14.00" fill="blue">[\n;]</text>
</g>
<!-- A1&#45;&gt;A1 -->
<g id="edge8" class="edge">
<title>A1&#45;&gt;A1</title>
<path fill="none" stroke="red" d="M256.98,-91.91C255.34,-101.59 258.27,-110.5 265.75,-110.5 270.08,-110.5 272.88,-107.52 274.16,-103.14"/>
<polygon fill="red" stroke="red" points="277.65,-103.53 274.47,-93.42 270.65,-103.3 277.65,-103.53"/>
<text text-anchor="middle" x="265.75" y="-114.45" font-family="monospace" font-size="14.00" fill="red">[^&quot;]</text>
</g>
<!-- A2 -->
<g id="node5" class="node">
<title>A2</title>
<ellipse fill="none" stroke="red" cx="364" cy="-83.5" rx="27" ry="18"/>
<text text-anchor="start" x="356.5" y="-79.82" font-family="monospace" font-size="14.00" fill="red">A</text>
<text text-anchor="start" x="364.75" y="-79.82" font-family="monospace" baseline-shift="sub" font-size="14.00" fill="red">2</text>
</g>
<!-- A1&#45;&gt;A2 -->
<g id="edge7" class="edge">
<title>A1&#45;&gt;A2</title>
<path fill="none" stroke="red" d="M288.16,-85.2C295.18,-88.18 303.14,-91 310.75,-92.5 316.42,-93.61 322.45,-93.64 328.32,-93.05"/>
<polygon fill="red" stroke="red" points="328.49,-96.56 337.79,-91.5 327.36,-89.66 328.49,-96.56"/>
<text text-anchor="middle" x="314.88" y="-97.3" font-family="monospace" font-size="14.00" fill="red">&quot;</text>
</g>
<!-- A2&#45;&gt;A1 -->
<g id="edge9" class="edge">
<title>A2&#45;&gt;A1</title>
<path fill="none" stroke="red" d="M339.5,-75.69C332.94,-73.86 325.76,-72.17 319,-71.25 314.19,-70.59 309.11,-70.35 304.08,-70.38"/>
<polygon fill="red" stroke="red" points="303.96,-66.88 294.12,-70.81 304.26,-73.87 303.96,-66.88"/>
<text text-anchor="middle" x="314.88" y="-75.2" font-family="monospace" font-size="14.00" fill="red">&quot;</text>
</g>
<!-- A2&#45;&gt;F -->
<g id="edge10" class="edge">
<title>A2&#45;&gt;F</title>
<path fill="none" stroke="red" d="M391.33,-83.5C409.88,-83.5 435.13,-83.5 456.42,-83.5"/>
<polygon fill="red" stroke="red" points="456.27,-87 466.27,-83.5 456.27,-80 456.27,-87"/>
<text text-anchor="middle" x="429.62" y="-87.45" font-family="monospace" font-size="14.00" fill="red">[\n;]</text>
</g>
</g>
</svg>
